<svg width="240" height="52" viewBox="0 0 240 52" fill="none" xmlns="http://www.w3.org/2000/svg">
<path d="M0 46.2099H1.82722C5.07368 46.2099 5.13878 44.3827 5.13878 35.7283V12.4736C5.13878 3.81926 5.06934 1.99204 1.75778 1.99204H0V0.0302734H20.8242V1.99204H19.0665C15.7549 1.99204 15.6854 3.81926 15.6854 12.4736V35.7327C15.6854 44.387 15.7549 46.2142 18.997 46.2142H20.8242V48.176H0V46.2099Z" fill="white"/>
<path d="M25.0176 46.2099H26.8448C30.0913 46.2099 30.1564 44.3827 30.1564 35.7283V12.4736C30.1564 3.81926 30.0869 1.99204 26.7754 1.99204H25.0176V0.0302734H49.0883C56.1194 0.0302734 65.1122 2.33057 65.1122 11.458C65.1122 18.0855 58.8928 21.9395 52.8729 22.6817V22.8163C59.2964 23.0203 66.666 27.3474 66.666 34.6476C66.666 45.8714 56.3885 48.1717 46.5189 48.1717H25.0176V46.2099ZM40.703 21.7356H45.4382C51.7922 21.7356 54.5656 17.7469 54.5656 11.7965C54.5656 7.26537 52.8773 2.40002 45.5076 2.40002H40.703V21.7356ZM40.703 45.8063H45.5033C51.4537 45.8063 55.7114 43.7099 55.7114 35.8672C55.7114 26.8743 52.3304 24.101 45.5684 24.101H40.703V45.8063Z" fill="white"/>
<path d="M149.111 11.8215V0.801758H151.338V11.8172H149.111V11.8215Z" fill="white"/>
<path d="M160.703 11.8221H158.59V7.74666C158.59 6.88296 158.546 6.32742 158.455 6.07569C158.364 5.82396 158.216 5.62431 158.017 5.48542C157.813 5.34654 157.57 5.27709 157.283 5.27709C156.919 5.27709 156.589 5.37692 156.298 5.57657C156.007 5.77622 155.808 6.04097 155.699 6.37516C155.591 6.70502 155.538 7.31698 155.538 8.21106V11.8264H153.425V3.84049H155.387V5.01234C156.081 4.10958 156.962 3.6582 158.017 3.6582C158.481 3.6582 158.906 3.74067 159.293 3.90993C159.679 4.0792 159.97 4.29187 160.169 4.55228C160.369 4.81269 160.504 5.10783 160.582 5.43768C160.66 5.76754 160.699 6.24062 160.699 6.85692V11.8221H160.703Z" fill="white"/>
<path d="M166.502 3.83968V5.52367H165.061V8.73975C165.061 9.39078 165.074 9.77272 165.104 9.87688C165.13 9.98539 165.196 10.0722 165.291 10.1416C165.391 10.2111 165.508 10.2458 165.647 10.2458C165.842 10.2458 166.124 10.1764 166.498 10.0418L166.68 11.6781C166.189 11.8864 165.634 11.9949 165.013 11.9949C164.631 11.9949 164.288 11.9298 163.985 11.8039C163.681 11.6781 163.455 11.5088 163.312 11.3091C163.169 11.1052 163.069 10.8317 163.017 10.4845C162.973 10.2371 162.947 9.74234 162.947 8.99582V5.51499H161.979V3.83968H162.947V2.25117L165.065 1.01855V3.83534H166.502V3.83968Z" fill="white"/>
<path d="M172.592 9.28309L174.697 9.63464C174.428 10.4072 173.998 10.9931 173.417 11.3968C172.835 11.8004 172.102 12 171.225 12C169.836 12 168.812 11.5487 168.143 10.6416C167.618 9.91676 167.354 8.99664 167.354 7.88989C167.354 6.56613 167.701 5.53317 168.391 4.78231C169.081 4.03146 169.958 3.6582 171.012 3.6582C172.202 3.6582 173.135 4.04882 173.825 4.83439C174.51 5.61997 174.84 6.81786 174.81 8.43675H169.519C169.532 9.06174 169.706 9.55218 170.031 9.8994C170.357 10.2466 170.765 10.4202 171.251 10.4202C171.581 10.4202 171.859 10.3291 172.084 10.1511C172.306 9.97318 172.475 9.68239 172.592 9.28309ZM172.714 7.14772C172.701 6.53575 172.54 6.07135 172.241 5.75451C171.941 5.43768 171.577 5.27709 171.143 5.27709C170.682 5.27709 170.301 5.44636 170.001 5.78056C169.702 6.11475 169.554 6.57047 169.558 7.14772H172.714Z" fill="white"/>
<path d="M178.55 11.8221H176.437V3.84049H178.398V4.97328C178.732 4.43944 179.036 4.08354 179.305 3.91427C179.574 3.74501 179.878 3.6582 180.217 3.6582C180.699 3.6582 181.163 3.79275 181.606 4.0575L180.95 5.89774C180.594 5.66771 180.265 5.55053 179.956 5.55053C179.661 5.55053 179.41 5.63299 179.206 5.79358C179.002 5.9585 178.837 6.2493 178.719 6.67463C178.602 7.09997 178.542 7.99405 178.542 9.34819V11.8221H178.55Z" fill="white"/>
<path d="M189.779 11.8221H187.665V7.74666C187.665 6.88296 187.621 6.32742 187.53 6.07569C187.439 5.82396 187.292 5.62431 187.092 5.48542C186.888 5.34654 186.645 5.27709 186.358 5.27709C185.994 5.27709 185.664 5.37692 185.373 5.57657C185.082 5.77622 184.883 6.04097 184.774 6.37516C184.666 6.70936 184.614 7.31698 184.614 8.21106V11.8264H182.5V3.84049H184.462V5.01234C185.156 4.10958 186.037 3.6582 187.092 3.6582C187.556 3.6582 187.982 3.74067 188.368 3.90993C188.754 4.0792 189.045 4.29187 189.245 4.55228C189.444 4.81269 189.579 5.10783 189.657 5.43768C189.735 5.76754 189.774 6.24062 189.774 6.85692V11.8221H189.779Z" fill="white"/>
<path d="M193.498 6.27534L191.579 5.92812C191.796 5.15557 192.165 4.587 192.69 4.21375C193.215 3.84483 193.997 3.6582 195.034 3.6582C195.976 3.6582 196.679 3.77105 197.139 3.9924C197.599 4.21375 197.925 4.5002 198.111 4.84307C198.298 5.18595 198.393 5.81528 198.393 6.73106L198.372 9.19629C198.372 9.8994 198.406 10.4159 198.471 10.7501C198.541 11.0843 198.667 11.4402 198.849 11.8221H196.761C196.705 11.6832 196.64 11.4749 196.557 11.1971C196.523 11.0712 196.497 10.9888 196.484 10.9497C196.123 11.3013 195.737 11.5617 195.325 11.7396C194.912 11.9176 194.474 12.0044 194.01 12.0044C193.189 12.0044 192.538 11.783 192.065 11.336C191.592 10.889 191.354 10.3247 191.354 9.64332C191.354 9.19194 191.462 8.78831 191.675 8.43675C191.892 8.0852 192.191 7.81176 192.582 7.62514C192.968 7.43851 193.528 7.27358 194.261 7.1347C195.247 6.94807 195.932 6.7788 196.314 6.61821V6.40988C196.314 6.00191 196.215 5.71545 196.015 5.54185C195.815 5.36824 195.438 5.28143 194.882 5.28143C194.504 5.28143 194.214 5.35522 194.001 5.50278C193.797 5.64601 193.628 5.90208 193.498 6.27534ZM196.323 7.98971C196.054 8.08086 195.624 8.18936 195.038 8.31089C194.452 8.43675 194.07 8.55828 193.888 8.6798C193.615 8.87511 193.476 9.1225 193.476 9.42197C193.476 9.71711 193.584 9.97318 193.806 10.1902C194.027 10.4072 194.305 10.5114 194.648 10.5114C195.03 10.5114 195.39 10.3855 195.737 10.1338C195.993 9.9428 196.162 9.70843 196.241 9.435C196.297 9.25271 196.323 8.90983 196.323 8.40637V7.98971V7.98971Z" fill="white"/>
<path d="M204.141 3.83968V5.52367H202.7V8.73975C202.7 9.39078 202.713 9.77272 202.743 9.87688C202.769 9.98539 202.834 10.0722 202.93 10.1416C203.03 10.2111 203.147 10.2458 203.286 10.2458C203.481 10.2458 203.763 10.1764 204.136 10.0418L204.319 11.6781C203.828 11.8864 203.273 11.9949 202.652 11.9949C202.27 11.9949 201.927 11.9298 201.623 11.8039C201.32 11.6781 201.094 11.5088 200.951 11.3091C200.807 11.1052 200.708 10.8317 200.655 10.4845C200.612 10.2371 200.586 9.74234 200.586 8.99582V5.51499H199.618V3.83968H200.586V2.25117L202.704 1.01855V3.83534H204.141V3.83968Z" fill="white"/>
<path d="M205.608 2.75875V0.805664H207.722V2.75875H205.608ZM205.608 11.8211V3.83946H207.722V11.8211H205.608V11.8211Z" fill="white"/>
<path d="M209.393 7.71585C209.393 7.01274 209.566 6.33567 209.909 5.6803C210.256 5.02493 210.742 4.52147 211.38 4.17859C212.014 3.83138 212.722 3.66211 213.503 3.66211C214.709 3.66211 215.699 4.05273 216.471 4.8383C217.244 5.62388 217.63 6.61344 217.63 7.81133C217.63 9.0179 217.24 10.0205 216.463 10.8147C215.686 11.609 214.705 12.004 213.52 12.004C212.787 12.004 212.092 11.839 211.428 11.5092C210.764 11.1793 210.261 10.6932 209.913 10.0552C209.566 9.41286 209.393 8.63597 209.393 7.71585ZM211.558 7.82869C211.558 8.61861 211.745 9.22623 212.123 9.64723C212.5 10.0682 212.96 10.2766 213.511 10.2766C214.063 10.2766 214.527 10.0682 214.896 9.64723C215.269 9.22623 215.456 8.61427 215.456 7.81133C215.456 7.0301 215.269 6.42681 214.896 6.00581C214.523 5.58481 214.063 5.37648 213.511 5.37648C212.96 5.37648 212.496 5.58481 212.123 6.00581C211.749 6.42681 211.558 7.03878 211.558 7.82869Z" fill="white"/>
<path d="M226.545 11.8221H224.431V7.74666C224.431 6.88296 224.388 6.32742 224.297 6.07569C224.206 5.82396 224.058 5.62431 223.859 5.48542C223.655 5.34654 223.411 5.27709 223.125 5.27709C222.76 5.27709 222.431 5.37692 222.14 5.57657C221.849 5.77622 221.649 6.04097 221.541 6.37516C221.432 6.70502 221.38 7.31698 221.38 8.21106V11.8264H219.267V3.84049H221.228V5.01234C221.923 4.10958 222.804 3.6582 223.859 3.6582C224.323 3.6582 224.748 3.74067 225.135 3.90993C225.521 4.0792 225.812 4.29187 226.011 4.55228C226.211 4.81269 226.345 5.10783 226.424 5.43768C226.502 5.76754 226.541 6.24062 226.541 6.85692V11.8221H226.545Z" fill="white"/>
<path d="M230.264 6.27534L228.346 5.92812C228.563 5.15557 228.932 4.587 229.457 4.21375C229.982 3.84483 230.763 3.6582 231.801 3.6582C232.742 3.6582 233.446 3.77105 233.906 3.9924C234.366 4.21375 234.691 4.5002 234.878 4.84307C235.064 5.18595 235.16 5.81528 235.16 6.73106L235.138 9.19629C235.138 9.8994 235.173 10.4159 235.238 10.7501C235.307 11.0843 235.433 11.4402 235.616 11.8221H233.528C233.472 11.6832 233.406 11.4749 233.324 11.1971C233.289 11.0712 233.263 10.9888 233.25 10.9497C232.89 11.3013 232.504 11.5617 232.091 11.7396C231.679 11.9176 231.241 12.0044 230.776 12.0044C229.956 12.0044 229.305 11.783 228.832 11.336C228.359 10.889 228.12 10.3247 228.12 9.64332C228.12 9.19194 228.229 8.78831 228.441 8.43675C228.658 8.0852 228.958 7.81176 229.348 7.62514C229.735 7.43851 230.295 7.27358 231.028 7.1347C232.013 6.94807 232.699 6.7788 233.081 6.61821V6.40988C233.081 6.00191 232.981 5.71545 232.782 5.54185C232.582 5.36824 232.204 5.28143 231.649 5.28143C231.271 5.28143 230.98 5.35522 230.768 5.50278C230.564 5.64601 230.394 5.90208 230.264 6.27534ZM233.09 7.98971C232.821 8.08086 232.391 8.18936 231.805 8.31089C231.219 8.43675 230.837 8.55828 230.655 8.6798C230.381 8.87511 230.242 9.1225 230.242 9.42197C230.242 9.71711 230.351 9.97318 230.572 10.1902C230.794 10.4072 231.071 10.5114 231.414 10.5114C231.796 10.5114 232.157 10.3855 232.504 10.1338C232.76 9.9428 232.929 9.70843 233.007 9.435C233.064 9.25271 233.09 8.90983 233.09 8.40637V7.98971Z" fill="white"/>
<path d="M237.247 11.8215V0.801758H239.361V11.8172H237.247V11.8215Z" fill="white"/>
<path d="M149.188 19.2734H153.594C154.466 19.2734 155.117 19.3082 155.543 19.3819C155.972 19.4557 156.354 19.6076 156.693 19.8377C157.031 20.0677 157.313 20.3758 157.539 20.7578C157.765 21.1397 157.878 21.5694 157.878 22.0468C157.878 22.5633 157.739 23.0364 157.461 23.4661C157.183 23.8957 156.806 24.2213 156.328 24.4339C157.001 24.6292 157.517 24.9634 157.878 25.4322C158.238 25.9052 158.42 26.4565 158.42 27.0945C158.42 27.5936 158.303 28.084 158.069 28.5571C157.834 29.0302 157.517 29.4078 157.114 29.6899C156.71 29.972 156.211 30.1456 155.621 30.2107C155.252 30.2498 154.353 30.2758 152.938 30.2845H149.188V19.2734V19.2734ZM151.411 21.105V23.6527H152.869C153.737 23.6527 154.275 23.6397 154.484 23.6136C154.865 23.5702 155.165 23.4357 155.382 23.2187C155.599 23.0017 155.707 22.7152 155.707 22.3593C155.707 22.0208 155.612 21.743 155.425 21.5303C155.239 21.3177 154.957 21.1875 154.588 21.1441C154.366 21.118 153.733 21.105 152.687 21.105H151.411ZM151.411 25.4886V28.4356H153.468C154.271 28.4356 154.779 28.4139 154.996 28.3661C155.326 28.3054 155.595 28.1578 155.803 27.9278C156.011 27.6934 156.115 27.3809 156.115 26.9903C156.115 26.6604 156.037 26.3783 155.877 26.1483C155.716 25.9183 155.486 25.749 155.182 25.6448C154.878 25.5407 154.223 25.4886 153.207 25.4886H151.411V25.4886Z" fill="white"/>
<path d="M165.535 30.2892V29.0957C165.244 29.521 164.863 29.8595 164.389 30.1026C163.916 30.3456 163.417 30.4715 162.892 30.4715C162.354 30.4715 161.876 30.3543 161.451 30.12C161.026 29.8856 160.718 29.5557 160.527 29.1261C160.336 28.7007 160.24 28.1104 160.24 27.3596V22.3076H162.354V25.9751C162.354 27.0992 162.393 27.7849 162.471 28.0367C162.549 28.2884 162.688 28.4924 162.896 28.64C163.1 28.7875 163.361 28.8613 163.678 28.8613C164.038 28.8613 164.363 28.7615 164.646 28.5662C164.932 28.3665 165.127 28.1235 165.231 27.8283C165.336 27.5332 165.388 26.8171 165.388 25.6756V22.3076H167.501V30.2892H165.535V30.2892Z" fill="white"/>
<path d="M171.706 30.2889H169.593V22.3073H171.555V23.4401C171.889 22.9062 172.193 22.5503 172.462 22.3811C172.731 22.2118 173.035 22.125 173.373 22.125C173.855 22.125 174.319 22.2595 174.762 22.5243L174.107 24.3645C173.751 24.1345 173.421 24.0173 173.113 24.0173C172.818 24.0173 172.566 24.0998 172.362 24.2604C172.158 24.4253 171.993 24.7161 171.876 25.1414C171.759 25.5668 171.698 26.4608 171.698 27.815V30.2889H171.706Z" fill="white"/>
<path d="M182.63 24.6684L180.547 25.0459C180.477 24.6293 180.317 24.3168 180.069 24.1085C179.822 23.9001 179.501 23.7916 179.102 23.7916C178.576 23.7916 178.155 23.9739 177.843 24.3385C177.53 24.7031 177.374 25.3107 177.374 26.1614C177.374 27.1075 177.535 27.7759 177.852 28.1665C178.168 28.5572 178.598 28.7525 179.132 28.7525C179.531 28.7525 179.861 28.6396 180.117 28.4096C180.373 28.1796 180.551 27.7889 180.66 27.2334L182.734 27.585C182.517 28.5355 182.105 29.2559 181.493 29.742C180.881 30.2281 180.061 30.4712 179.036 30.4712C177.869 30.4712 176.94 30.1023 176.246 29.3644C175.551 28.6266 175.204 27.6067 175.204 26.3046C175.204 24.9852 175.551 23.9609 176.25 23.2274C176.945 22.4939 177.886 22.125 179.076 22.125C180.048 22.125 180.82 22.3333 181.393 22.7543C181.97 23.1753 182.378 23.8133 182.63 24.6684Z" fill="white"/>
<path d="M186.337 19.2734V23.3228C187.019 22.5242 187.835 22.1293 188.781 22.1293C189.267 22.1293 189.705 22.2204 190.096 22.3984C190.487 22.5807 190.782 22.8107 190.977 23.0885C191.177 23.3706 191.311 23.6787 191.385 24.0216C191.459 24.3645 191.493 24.8896 191.493 25.6058V30.2888H189.38V26.0745C189.38 25.2369 189.341 24.7074 189.258 24.4817C189.18 24.256 189.037 24.078 188.833 23.9435C188.629 23.8089 188.377 23.7438 188.069 23.7438C187.717 23.7438 187.405 23.8306 187.132 23.9999C186.858 24.1692 186.654 24.4252 186.528 24.7681C186.402 25.111 186.337 25.6188 186.337 26.2915V30.2888H184.224V19.2734H186.337Z" fill="white"/>
<path d="M149.167 37.7412H151.394V43.709C151.394 44.6551 151.42 45.2714 151.476 45.5492C151.571 46.0006 151.797 46.3608 152.157 46.6343C152.513 46.9077 153.004 47.0422 153.629 47.0422C154.258 47.0422 154.735 46.912 155.057 46.656C155.378 46.3999 155.569 46.0831 155.634 45.7055C155.699 45.3279 155.734 44.7072 155.734 43.8348V37.7412H157.96V43.5267C157.96 44.8504 157.899 45.7836 157.778 46.3304C157.656 46.8773 157.435 47.3374 157.114 47.715C156.793 48.0926 156.359 48.392 155.816 48.6134C155.274 48.8347 154.571 48.9476 153.698 48.9476C152.648 48.9476 151.849 48.8261 151.302 48.583C150.76 48.34 150.33 48.0231 150.013 47.6368C149.697 47.2506 149.488 46.8426 149.388 46.4172C149.241 45.7879 149.171 44.8548 149.171 43.6222V37.7412H149.167Z" fill="white"/>
<path d="M167.54 48.7606H165.427V44.6851C165.427 43.8214 165.383 43.2659 165.292 43.0142C165.201 42.7624 165.053 42.5628 164.854 42.4239C164.65 42.285 164.407 42.2156 164.12 42.2156C163.756 42.2156 163.426 42.3154 163.135 42.515C162.844 42.7147 162.644 42.9794 162.536 43.3136C162.427 43.6478 162.375 44.2555 162.375 45.1495V48.7649H160.262V40.779H162.223V41.9508C162.918 41.0481 163.799 40.5967 164.854 40.5967C165.318 40.5967 165.743 40.6791 166.13 40.8484C166.516 41.0177 166.807 41.2303 167.006 41.4908C167.206 41.7512 167.341 42.0463 167.419 42.3762C167.497 42.706 167.536 43.1791 167.536 43.7954V48.7606H167.54Z" fill="white"/>
<path d="M169.684 39.6943V37.7412H171.797V39.6943H169.684ZM169.684 48.761V40.7793H171.797V48.761H169.684Z" fill="white"/>
<path d="M176.156 48.7613L172.939 40.7797H175.157L176.659 44.8552L177.093 46.2137C177.21 45.8664 177.28 45.6407 177.31 45.5279C177.379 45.3022 177.458 45.0765 177.536 44.8508L179.055 40.7754H181.225L178.052 48.757H176.156V48.7613Z" fill="white"/>
<path d="M187.141 46.2177L189.246 46.5692C188.977 47.3418 188.547 47.9277 187.966 48.3313C187.384 48.735 186.651 48.9346 185.774 48.9346C184.385 48.9346 183.361 48.4832 182.692 47.5761C182.167 46.8513 181.902 45.9312 181.902 44.8245C181.902 43.5007 182.25 42.4677 182.94 41.7169C183.63 40.966 184.506 40.5928 185.561 40.5928C186.75 40.5928 187.683 40.9834 188.374 41.769C189.059 42.5545 189.389 43.7524 189.359 45.3713H184.068C184.081 45.9963 184.255 46.4868 184.58 46.834C184.906 47.1812 185.314 47.3548 185.8 47.3548C186.13 47.3548 186.407 47.2636 186.633 47.0857C186.859 46.9077 187.028 46.6213 187.141 46.2177ZM187.262 44.0866C187.249 43.4747 187.089 43.0103 186.789 42.6934C186.49 42.3766 186.125 42.216 185.691 42.216C185.231 42.216 184.849 42.3853 184.55 42.7195C184.25 43.0537 184.103 43.5094 184.107 44.0866H187.262V44.0866Z" fill="white"/>
<path d="M193.099 48.7606H190.985V40.779H192.947V41.9118C193.281 41.3779 193.585 41.022 193.854 40.8527C194.123 40.6835 194.427 40.5967 194.766 40.5967C195.247 40.5967 195.712 40.7312 196.155 40.996L195.499 42.8362C195.143 42.6062 194.813 42.489 194.505 42.489C194.21 42.489 193.958 42.5715 193.754 42.7321C193.55 42.897 193.385 43.1878 193.268 43.6131C193.151 44.0384 193.09 44.9325 193.09 46.2867V48.7606H193.099Z" fill="white"/>
<path d="M196.324 46.4825L198.442 46.1613C198.533 46.5737 198.716 46.8862 198.989 47.0988C199.263 47.3115 199.649 47.42 200.148 47.42C200.695 47.42 201.107 47.3202 201.381 47.1205C201.567 46.9816 201.658 46.7907 201.658 46.5563C201.658 46.3957 201.606 46.2612 201.506 46.157C201.402 46.0572 201.164 45.966 200.799 45.8792C199.098 45.5016 198.017 45.1588 197.561 44.8506C196.932 44.4209 196.615 43.822 196.615 43.0538C196.615 42.3637 196.888 41.7821 197.435 41.309C197.982 40.8403 198.829 40.6016 199.974 40.6016C201.068 40.6016 201.88 40.7795 202.409 41.1354C202.939 41.4913 203.308 42.0165 203.507 42.7152L201.515 43.0841C201.428 42.7717 201.268 42.5373 201.029 42.3724C200.79 42.2074 200.452 42.125 200.009 42.125C199.453 42.125 199.054 42.2031 198.815 42.3593C198.655 42.4678 198.577 42.6111 198.577 42.789C198.577 42.9409 198.646 43.0668 198.785 43.171C198.976 43.3098 199.631 43.5095 200.76 43.7656C201.884 44.0216 202.67 44.3341 203.117 44.703C203.559 45.0806 203.776 45.6015 203.776 46.2742C203.776 47.0077 203.473 47.6327 202.861 48.1622C202.249 48.6917 201.346 48.9521 200.148 48.9521C199.063 48.9521 198.199 48.7307 197.566 48.2924C196.936 47.8367 196.52 47.2377 196.324 46.4825Z" fill="white"/>
<path d="M205.63 39.6943V37.7412H207.744V39.6943H205.63ZM205.63 48.761V40.7793H207.744V48.761H205.63Z" fill="white"/>
<path d="M213.563 40.7791V42.4631H212.123V45.6792C212.123 46.3302 212.136 46.7122 212.166 46.8163C212.192 46.9248 212.257 47.0116 212.353 47.0811C212.452 47.1505 212.57 47.1853 212.708 47.1853C212.904 47.1853 213.186 47.1158 213.559 46.9813L213.741 48.6175C213.251 48.8258 212.695 48.9343 212.075 48.9343C211.693 48.9343 211.35 48.8692 211.046 48.7434C210.742 48.6175 210.517 48.4482 210.373 48.2486C210.23 48.0446 210.13 47.7712 210.078 47.424C210.035 47.1766 210.009 46.6818 210.009 45.9353V42.4544H209.041V40.7705H210.009V39.1906L212.127 37.958V40.7748H213.563V40.7791Z" fill="white"/>
<path d="M214.031 40.7793H216.279L218.189 46.4476L220.051 40.7793H222.239L219.422 48.4614L218.918 49.8503C218.732 50.3147 218.558 50.6706 218.389 50.918C218.22 51.1654 218.029 51.3607 217.812 51.5169C217.595 51.6688 217.325 51.7904 217.009 51.8728C216.692 51.9596 216.332 51.9987 215.932 51.9987C215.524 51.9987 215.129 51.9553 214.739 51.8728L214.552 50.2192C214.882 50.2843 215.181 50.319 215.446 50.319C215.937 50.319 216.301 50.1758 216.536 49.885C216.77 49.5986 216.952 49.2296 217.078 48.7826L214.031 40.7793Z" fill="white"/>
<path d="M131.476 0H128.851V49.6084H131.476V0Z" fill="#937947"/>
<path d="M113.444 1.99204H111.686C108.375 1.99204 108.305 3.81926 108.305 12.4736V32.7553C108.305 42.6943 101.951 49.2524 91.131 49.2524C78.6226 49.2524 72.0646 42.4903 72.0646 32.4862V12.4736C72.0646 3.81926 71.9951 1.99204 68.6836 1.99204H66.9258V0.0302734H87.75V1.99204H85.9922C82.6807 1.99204 82.6112 3.81926 82.6112 12.4736V33.9055C82.6112 43.0329 87.6155 46.2793 93.2273 46.2793C99.6508 46.2793 105.328 41.6136 105.328 31.744V12.4736C105.328 3.81926 105.258 1.99204 101.947 1.99204H100.189V0.0302734H113.44V1.99204H113.444Z" fill="white"/>
</svg>
